<svg id="visual" viewBox="0 0 900 600" width="900" height="600" xmlns="http://www.w3.org/2000/svg" xmlns:xlink="http://www.w3.org/1999/xlink" version="1.1"><rect x="0" y="0" width="900" height="600" fill="#ffffff"></rect><path d="M0 427L129 443L257 432L386 391L514 406L643 411L771 473L900 397L900 601L771 601L643 601L514 601L386 601L257 601L129 601L0 601Z" fill="#f37183"></path><path d="M0 485L129 473L257 477L386 453L514 425L643 491L771 426L900 461L900 601L771 601L643 601L514 601L386 601L257 601L129 601L0 601Z" fill="#eb4e66"></path><path d="M0 516L129 501L257 476L386 476L514 522L643 516L771 517L900 528L900 601L771 601L643 601L514 601L386 601L257 601L129 601L0 601Z" fill="#e11d48"></path><path d="M0 499L129 517L257 547L386 547L514 524L643 499L771 530L900 524L900 601L771 601L643 601L514 601L386 601L257 601L129 601L0 601Z" fill="#c31940"></path><path d="M0 569L129 565L257 543L386 546L514 577L643 565L771 551L900 572L900 601L771 601L643 601L514 601L386 601L257 601L129 601L0 601Z" fill="#a51537"></path></svg>