<?xml version="1.0" encoding="UTF-8" standalone="no"?>
<svg
   id="visual"
   viewBox="0 0 900 600"
   width="900"
   height="600"
   version="1.1"
   sodipodi:docname="aboutus_background_2.svg"
   inkscape:version="1.2.2 (732a01da63, 2022-12-09)"
   xmlns:inkscape="http://www.inkscape.org/namespaces/inkscape"
   xmlns:sodipodi="http://sodipodi.sourceforge.net/DTD/sodipodi-0.dtd"
   xmlns="http://www.w3.org/2000/svg"
   xmlns:svg="http://www.w3.org/2000/svg">
  <defs
     id="defs1081" />
  <sodipodi:namedview
     id="namedview1079"
     pagecolor="#ffffff"
     bordercolor="#000000"
     borderopacity="0.25"
     inkscape:showpageshadow="2"
     inkscape:pageopacity="0.0"
     inkscape:pagecheckerboard="0"
     inkscape:deskcolor="#d1d1d1"
     showgrid="false"
     inkscape:zoom="0.43722769"
     inkscape:cx="583.22015"
     inkscape:cy="404.8234"
     inkscape:window-width="1920"
     inkscape:window-height="974"
     inkscape:window-x="-11"
     inkscape:window-y="-11"
     inkscape:window-maximized="1"
     inkscape:current-layer="visual" />
  <rect
     x="0"
     y="1"
     width="900"
     height="600"
     fill="#ffffff"
     id="rect1066" />
  <path
     d="M 900,174 771,158 643,169 514,210 386,195 257,190 129,128 0,204 V 0 h 129 128 129 128 129 128 129 z"
     fill="#f37183"
     id="path1068" />
  <path
     d="M 900,116 771,128 643,124 514,148 386,176 257,110 129,175 0,140 V 0 h 129 128 129 128 129 128 129 z"
     fill="#eb4e66"
     id="path1070" />
  <path
     d="M 900,85 771,100 643,125 H 514 L 386,79 257,85 129,84 0,73 V 0 h 129 128 129 128 129 128 129 z"
     fill="#e11d48"
     id="path1072" />
  <path
     d="M 900,102 771,84 643,54 H 514 L 386,77 257,102 129,71 0,77 V 0 h 129 128 129 128 129 128 129 z"
     fill="#c31940"
     id="path1074" />
  <path
     d="M 900,32 771,36 643,58 514,55 386,24 257,36 129,50 0,29 V 0 h 129 128 129 128 129 128 129 z"
     fill="#a51537"
     id="path1076" />
</svg>
