<?xml version="1.0" encoding="UTF-8" standalone="no"?>
<svg
   id="visual"
   viewBox="0 0 900 600"
   width="900"
   height="600"
   version="1.1"
   sodipodi:docname="landingpage_background.svg"
   inkscape:version="1.2.2 (732a01da63, 2022-12-09)"
   xmlns:inkscape="http://www.inkscape.org/namespaces/inkscape"
   xmlns:sodipodi="http://sodipodi.sourceforge.net/DTD/sodipodi-0.dtd"
   xmlns="http://www.w3.org/2000/svg"
   xmlns:svg="http://www.w3.org/2000/svg">
  <defs
     id="defs21235" />
  <sodipodi:namedview
     id="namedview21233"
     pagecolor="#ffffff"
     bordercolor="#000000"
     borderopacity="0.25"
     inkscape:showpageshadow="2"
     inkscape:pageopacity="0.0"
     inkscape:pagecheckerboard="0"
     inkscape:deskcolor="#d1d1d1"
     showgrid="false"
     inkscape:zoom="0.64666667"
     inkscape:cx="317.01031"
     inkscape:cy="321.64948"
     inkscape:window-width="1920"
     inkscape:window-height="974"
     inkscape:window-x="-11"
     inkscape:window-y="-11"
     inkscape:window-maximized="1"
     inkscape:current-layer="visual" />
  <rect
     x="0"
     y="0"
     width="900"
     height="600"
     fill="#ffffff"
     id="rect21220" />
  <path
     d="m 0,413.8866 21.5,14.03351 c 21.5,14.0335 64.5,42.10051 107.3,48.15051 42.9,5.98763 85.5,-9.97938 128.4,-16.52835 42.8,-6.54897 85.8,-3.6799 128.6,3.43041 42.9,7.04794 85.5,18.27475 128.4,9.23093 42.8,-9.04381 85.8,-38.35825 128.6,-41.97578 42.9,-3.67989 85.5,18.39949 128.4,21.8299 42.8,3.43042 85.8,-11.78815 107.3,-19.33505 L 900,425.1134 V 601 h -21.5 c -21.5,0 -64.5,0 -107.3,0 -42.9,0 -85.5,0 -128.4,0 -42.8,0 -85.8,0 -128.6,0 -42.9,0 -85.5,0 -128.4,0 -42.8,0 -85.8,0 -128.6,0 -42.9,0 -85.5,0 -128.4,0 C 86,601 43,601 21.5,601 H 0 Z"
     fill="#f37183"
     id="path21222"
     style="stroke-width:0.789754" />
  <path
     d="m 0,446.31958 21.5,1.12269 c 21.5,1.18505 64.5,3.43041 107.3,11.03969 42.9,7.60928 85.5,20.45774 128.4,22.64072 42.8,2.18299 85.8,-6.29949 128.6,-4.86495 42.9,1.43454 85.5,12.91083 128.4,11.22681 42.8,-1.68402 85.8,-16.40361 128.6,-21.01908 42.9,-4.55309 85.5,1.06031 128.4,1.68402 42.8,0.62371 85.8,-3.74227 107.3,-5.92526 L 900,460.04124 V 601 h -21.5 c -21.5,0 -64.5,0 -107.3,0 -42.9,0 -85.5,0 -128.4,0 -42.8,0 -85.8,0 -128.6,0 -42.9,0 -85.5,0 -128.4,0 -42.8,0 -85.8,0 -128.6,0 -42.9,0 -85.5,0 -128.4,0 C 86,601 43,601 21.5,601 H 0 Z"
     fill="#eb4e66"
     id="path21224"
     style="stroke-width:0.789754" />
  <path
     d="m 0,493.72165 21.5,-2.68195 c 21.5,-2.74434 64.5,-8.10826 107.3,-7.73403 42.9,0.4366 85.5,6.67371 128.4,17.58866 42.8,10.91495 85.8,26.50773 128.6,31.06083 42.9,4.61546 85.5,-1.87114 128.4,-9.85464 42.8,-7.98351 85.8,-17.58867 128.6,-26.63249 42.9,-9.04381 85.5,-17.52628 128.4,-15.28092 42.8,2.30773 85.8,15.40568 107.3,21.95464 l 21.5,6.54897 V 601 h -21.5 c -21.5,0 -64.5,0 -107.3,0 -42.9,0 -85.5,0 -128.4,0 -42.8,0 -85.8,0 -128.6,0 -42.9,0 -85.5,0 -128.4,0 -42.8,0 -85.8,0 -128.6,0 -42.9,0 -85.5,0 -128.4,0 C 86,601 43,601 21.5,601 H 0 Z"
     fill="#e11d48"
     id="path21226"
     style="stroke-width:0.789754" />
  <path
     d="m 0,550.47938 21.5,-5.6134 c 21.5,-5.61341 64.5,-16.84021 107.3,-21.3933 42.9,-4.61547 85.5,-2.49485 128.4,-3.36804 42.8,-0.81083 85.8,-4.55309 128.6,-1.87114 42.9,2.74433 85.5,11.85052 128.4,13.72166 42.8,1.87112 85.8,-3.49279 128.6,-6.73609 42.9,-3.2433 85.5,-4.24124 128.4,1.37217 42.8,5.6134 85.8,17.83814 107.3,24.01288 L 900,556.7165 V 601 h -21.5 c -21.5,0 -64.5,0 -107.3,0 -42.9,0 -85.5,0 -128.4,0 -42.8,0 -85.8,0 -128.6,0 -42.9,0 -85.5,0 -128.4,0 -42.8,0 -85.8,0 -128.6,0 -42.9,0 -85.5,0 -128.4,0 C 86,601 43,601 21.5,601 H 0 Z"
     fill="#c31940"
     id="path21228"
     style="stroke-width:0.789754" />
  <path
     d="m 0,586.03093 21.5,-0.31186 c 21.5,-0.31186 64.5,-0.93557 107.3,-1.12268 42.9,-0.24948 85.5,0 128.4,-0.31185 42.8,-0.31186 85.8,-1.18506 128.6,-8.85671 42.9,-7.67164 85.5,-22.26648 128.4,-22.95257 42.8,-0.74845 85.8,12.34948 128.6,20.02113 42.9,7.73403 85.5,9.97938 128.4,5.11443 42.8,-4.86494 85.8,-16.96494 107.3,-22.95257 l 21.5,-6.05 V 601 h -21.5 c -21.5,0 -64.5,0 -107.3,0 -42.9,0 -85.5,0 -128.4,0 -42.8,0 -85.8,0 -128.6,0 -42.9,0 -85.5,0 -128.4,0 -42.8,0 -85.8,0 -128.6,0 -42.9,0 -85.5,0 -128.4,0 C 86,601 43,601 21.5,601 H 0 Z"
     fill="#a51537"
     id="path21230"
     style="stroke-width:0.789754" />
</svg>
