<?xml version="1.0" encoding="UTF-8" standalone="no"?>
<svg
   id="visual"
   viewBox="0 0 900 600"
   width="900"
   height="600"
   version="1.1"
   sodipodi:docname="landingpage_background_2.svg"
   inkscape:version="1.2.2 (732a01da63, 2022-12-09)"
   xmlns:inkscape="http://www.inkscape.org/namespaces/inkscape"
   xmlns:sodipodi="http://sodipodi.sourceforge.net/DTD/sodipodi-0.dtd"
   xmlns="http://www.w3.org/2000/svg"
   xmlns:svg="http://www.w3.org/2000/svg">
  <defs
     id="defs21235" />
  <sodipodi:namedview
     id="namedview21233"
     pagecolor="#ffffff"
     bordercolor="#000000"
     borderopacity="0.25"
     inkscape:showpageshadow="2"
     inkscape:pageopacity="0.0"
     inkscape:pagecheckerboard="0"
     inkscape:deskcolor="#d1d1d1"
     showgrid="false"
     inkscape:zoom="0.45726239"
     inkscape:cx="566.4144"
     inkscape:cy="732.62094"
     inkscape:window-width="1920"
     inkscape:window-height="974"
     inkscape:window-x="-11"
     inkscape:window-y="-11"
     inkscape:window-maximized="1"
     inkscape:current-layer="visual" />
  <rect
     x="-900"
     y="-942.16077"
     width="900"
     height="940.5932"
     fill="#ffffff"
     id="rect21220"
     transform="scale(-1)"
     style="stroke-width:1.25206" />
  <path
     d="M 900,293.3293 878.5,271.3296 C 857,249.3299 814,205.33052 771.2,195.8462 728.3,186.45966 685.7,211.49043 642.8,221.75695 600,232.02348 557,227.52577 514.2,216.37925 471.3,205.33052 428.7,187.73074 385.8,201.90833 343,216.08591 300,262.04085 257.2,267.71188 214.3,273.4807 171.7,238.86783 128.8,233.49014 86,228.11241 43,251.96988 21.5,263.80082 L 0,275.72956 V 0 H 21.5 C 43,0 86,0 128.8,0 171.7,0 214.3,0 257.2,0 300,0 343,0 385.8,0 428.7,0 471.3,0 514.2,0 557,0 600,0 642.8,0 685.7,0 728.3,0 771.2,0 814,0 857,0 878.5,0 H 900 Z"
     fill="#f37183"
     id="path21222"
     style="stroke-width:0.988817" />
  <path
     d="m 900,242.48557 -21.5,-1.75999 C 857,238.86783 814,235.34787 771.2,223.41915 728.3,211.49043 685.7,191.34847 642.8,187.92631 600,184.50413 557,197.80173 514.2,195.55286 471.3,193.304 428.7,175.31314 385.8,177.9531 343,180.59307 300,203.66831 257.2,210.90378 214.3,218.04146 171.7,209.24158 128.8,208.26381 86,207.28605 43,214.1304 21.5,217.55258 L 0,220.97474 V 0 H 21.5 C 43,0 86,0 128.8,0 171.7,0 214.3,0 257.2,0 300,0 343,0 385.8,0 428.7,0 471.3,0 514.2,0 557,0 600,0 642.8,0 685.7,0 728.3,0 771.2,0 814,0 857,0 878.5,0 H 900 Z"
     fill="#eb4e66"
     id="path21224"
     style="stroke-width:0.988817" />
  <path
     d="m 900,168.17547 -21.5,4.20437 C 857,176.68202 814,185.0908 771.2,184.50413 728.3,183.81969 685.7,174.04206 642.8,156.93118 600,139.8203 557,115.3762 514.2,108.2385 471.3,101.00306 428.7,111.1718 385.8,123.68719 343,136.20258 300,151.26015 257.2,165.43775 214.3,179.61532 171.7,192.91291 128.8,189.39297 86,185.77524 43,165.24217 21.5,154.97565 L 0,144.70912 V 0 H 21.5 C 43,0 86,0 128.8,0 171.7,0 214.3,0 257.2,0 300,0 343,0 385.8,0 428.7,0 471.3,0 514.2,0 557,0 600,0 642.8,0 685.7,0 728.3,0 771.2,0 814,0 857,0 878.5,0 H 900 Z"
     fill="#e11d48"
     id="path21226"
     style="stroke-width:0.988817" />
  <path
     d="m 900,79.198916 -21.5,8.799872 C 857,96.798682 814,114.39844 771.2,121.53611 c -42.9,7.23547 -85.5,3.91106 -128.4,5.27992 -42.8,1.27111 -85.8,7.13769 -128.6,2.9333 -42.9,-4.30216 -85.5,-18.57753 -128.4,-21.51083 -42.8,-2.93326 -85.8,5.47549 -128.6,10.55988 -42.9,5.08437 -85.5,6.64879 -128.4,-2.1511 C 86,107.84741 43,88.683228 21.5,79.003365 L 0,69.421262 V 0 H 21.5 C 43,0 86,0 128.8,0 171.7,0 214.3,0 257.2,0 300,0 343,0 385.8,0 428.7,0 471.3,0 514.2,0 557,0 600,0 642.8,0 685.7,0 728.3,0 771.2,0 814,0 857,0 878.5,0 H 900 Z"
     fill="#c31940"
     id="path21228"
     style="stroke-width:0.988817" />
  <path
     d="m 900,23.46634 -21.5,0.48889 c -21.5,0.488889 -64.5,1.466651 -107.3,1.759975 -42.9,0.391099 -85.5,0 -128.4,0.488873 C 600,26.692968 557,28.061844 514.2,40.088346 471.3,52.114832 428.7,74.994512 385.8,76.070062 343,77.243376 300,56.710336 257.2,44.683833 214.3,32.559541 171.7,29.039606 128.8,36.666171 86,44.292719 43,63.261348 21.5,72.647889 L 0,82.132201 V 0 H 21.5 C 43,0 86,0 128.8,0 171.7,0 214.3,0 257.2,0 300,0 343,0 385.8,0 428.7,0 471.3,0 514.2,0 557,0 600,0 642.8,0 685.7,0 728.3,0 771.2,0 814,0 857,0 878.5,0 H 900 Z"
     fill="#a51537"
     id="path21230"
     style="stroke-width:0.988817" />
</svg>
