<?xml version="1.0" encoding="UTF-8" standalone="no"?>
<svg
   id="visual"
   viewBox="0 0 900 600"
   width="900"
   height="600"
   version="1.1"
   sodipodi:docname="shows_background_2.svg"
   inkscape:version="1.2.2 (732a01da63, 2022-12-09)"
   xmlns:inkscape="http://www.inkscape.org/namespaces/inkscape"
   xmlns:sodipodi="http://sodipodi.sourceforge.net/DTD/sodipodi-0.dtd"
   xmlns="http://www.w3.org/2000/svg"
   xmlns:svg="http://www.w3.org/2000/svg">
  <defs
     id="defs1081" />
  <sodipodi:namedview
     id="namedview1079"
     pagecolor="#ffffff"
     bordercolor="#000000"
     borderopacity="0.25"
     inkscape:showpageshadow="2"
     inkscape:pageopacity="0.0"
     inkscape:pagecheckerboard="0"
     inkscape:deskcolor="#d1d1d1"
     showgrid="false"
     inkscape:zoom="0.61833333"
     inkscape:cx="88.948787"
     inkscape:cy="449.59569"
     inkscape:window-width="1920"
     inkscape:window-height="974"
     inkscape:window-x="-11"
     inkscape:window-y="-11"
     inkscape:window-maximized="1"
     inkscape:current-layer="visual" />
  <rect
     x="-900"
     y="-601"
     width="900"
     height="600"
     fill="#ffffff"
     id="rect1066"
     transform="scale(-1)" />
  <path
     d="m 900,288 h -39 v -5 h -39 v -57 h -39 v 14 h -40 v 57 h -39 v 16 h -39 v -6 h -39 v -59 h -39 v 45 h -39 v -50 h -39 v -15 h -39 v 1 h -40 v 59 h -39 v 8 h -39 v -17 h -39 v 21 h -39 v -63 h -39 v 22 h -39 v 31 h -39 v 13 H 117 V 229 H 78 v 85 H 39 V 288 H 0 V 258 0 0 h 39 v 0 h 39 v 0 h 39 v 0 h 40 v 0 h 39 v 0 h 39 v 0 h 39 v 0 h 39 v 0 h 39 v 0 h 39 v 0 h 39 v 0 h 40 v 0 h 39 v 0 h 39 v 0 h 39 v 0 h 39 v 0 h 39 v 0 h 39 v 0 h 39 v 0 h 40 v 0 h 39 v 0 h 39 v 0 h 39 z"
     fill="#ec7082"
     id="path1068" />
  <path
     d="m 900,253 h -39 v -55 h -39 v 9 h -39 v -7 h -40 v -3 h -39 v 47 h -39 v -10 h -39 v -10 h -39 v -43 h -39 v 39 h -39 v -19 h -39 v -19 h -40 v 0 h -39 v 15 h -39 v 23 h -39 v -29 h -39 v 16 h -39 v 8 h -39 v 15 h -39 v -19 h -40 v 16 H 78 v 28 H 39 V 201 H 0 V 258 0 0 h 39 v 0 h 39 v 0 h 39 v 0 h 40 v 0 h 39 v 0 h 39 v 0 h 39 v 0 h 39 v 0 h 39 v 0 h 39 v 0 h 39 v 0 h 40 v 0 h 39 v 0 h 39 v 0 h 39 v 0 h 39 v 0 h 39 v 0 h 39 v 0 h 39 v 0 h 40 v 0 h 39 v 0 h 39 v 0 h 39 z"
     fill="#db5c6e"
     id="path1070" />
  <path
     d="m 900,199 h -39 v -9 h -39 v -14 h -39 v -17 h -40 v 15 h -39 v 10 h -39 v -46 h -39 v 3 h -39 v 11 h -39 v 28 h -39 v 5 h -39 v -45 h -40 v 3 h -39 v 21 h -39 v 2 h -39 v 9 h -39 v -34 h -39 v 7 h -39 v 55 h -39 v -44 h -40 v 5 H 78 v -5 H 39 v 34 H 0 V 153 0 0 h 39 v 0 h 39 v 0 h 39 v 0 h 40 v 0 h 39 v 0 h 39 v 0 h 39 v 0 h 39 v 0 h 39 v 0 h 39 v 0 h 39 v 0 h 40 v 0 h 39 v 0 h 39 v 0 h 39 v 0 h 39 v 0 h 39 v 0 h 39 v 0 h 39 v 0 h 40 v 0 h 39 v 0 h 39 v 0 h 39 z"
     fill="#c9475b"
     id="path1072" />
  <path
     d="m 900,131 h -39 v -1 h -39 v -17 h -39 v 17 h -40 v 7 h -39 v -20 h -39 v -10 h -39 v 0 h -39 v 5 h -39 v -1 h -39 v -5 h -39 v 0 h -40 v 29 h -39 v -6 h -39 v 9 H 313 V 96 h -39 v 8 h -39 v 36 h -39 v -35 h -39 v -1 h -40 v 43 H 78 V 112 H 39 v 25 H 0 V 143 0 0 h 39 v 0 h 39 v 0 h 39 v 0 h 40 v 0 h 39 v 0 h 39 v 0 h 39 v 0 h 39 v 0 h 39 v 0 h 39 v 0 h 39 v 0 h 40 v 0 h 39 v 0 h 39 v 0 h 39 v 0 h 39 v 0 h 39 v 0 h 39 v 0 h 39 v 0 h 40 v 0 h 39 v 0 h 39 v 0 h 39 z"
     fill="#b73149"
     id="path1074" />
  <path
     d="M 900,90 H 861 V 80 H 822 V 90 H 783 V 71 h -40 v 2 h -39 v -5 h -39 v -5 h -39 v 3 H 587 V 58 H 548 V 53 H 509 V 73 H 470 V 59 H 430 V 53 H 391 V 79 H 352 V 78 H 313 V 57 H 274 V 91 H 235 V 72 H 196 V 87 H 157 V 71 h -40 v 2 H 78 V 93 H 39 V 62 H 0 V 64 0 0 h 39 v 0 h 39 v 0 h 39 v 0 h 40 v 0 h 39 v 0 h 39 v 0 h 39 v 0 h 39 v 0 h 39 v 0 h 39 v 0 h 39 v 0 h 40 v 0 h 39 v 0 h 39 v 0 h 39 v 0 h 39 v 0 h 39 v 0 h 39 v 0 h 39 v 0 h 40 v 0 h 39 v 0 h 39 v 0 h 39 z"
     fill="#a51537"
     id="path1076" />
</svg>
