<?xml version="1.0" encoding="UTF-8" standalone="no"?>
<svg
   id="visual"
   viewBox="0 0 900 600"
   width="900"
   height="600"
   version="1.1"
   sodipodi:docname="shows_background.svg"
   inkscape:version="1.2.2 (732a01da63, 2022-12-09)"
   xmlns:inkscape="http://www.inkscape.org/namespaces/inkscape"
   xmlns:sodipodi="http://sodipodi.sourceforge.net/DTD/sodipodi-0.dtd"
   xmlns="http://www.w3.org/2000/svg"
   xmlns:svg="http://www.w3.org/2000/svg">
  <defs
     id="defs17" />
  <sodipodi:namedview
     id="namedview15"
     pagecolor="#ffffff"
     bordercolor="#000000"
     borderopacity="0.25"
     inkscape:showpageshadow="2"
     inkscape:pageopacity="0.0"
     inkscape:pagecheckerboard="0"
     inkscape:deskcolor="#d1d1d1"
     showgrid="false"
     inkscape:zoom="0.91452477"
     inkscape:cx="450.50721"
     inkscape:cy="299.60916"
     inkscape:window-width="1920"
     inkscape:window-height="974"
     inkscape:window-x="-11"
     inkscape:window-y="-11"
     inkscape:window-maximized="1"
     inkscape:current-layer="visual" />
  <rect
     x="0"
     y="0"
     width="900"
     height="600"
     fill="#ffffff"
     id="rect2" />
  <path
     d="m 0,364.14905 h 39 v 4.11199 h 39 v 46.87675 h 39 v -11.51358 h 40 v -46.87676 h 39 v -13.15838 h 39 v 4.93439 h 39 v 48.52155 h 39 v -37.00796 h 39 v 41.11996 h 39 V 413.493 h 39 v -0.8224 h 40 v -48.52155 h 39 v -6.5792 h 39 v 13.98079 h 39 v -17.27038 h 39 v 51.81114 h 39 v -18.09278 h 39 v -25.49437 h 39 v -10.69119 h 40 v 60.85754 h 39 v -69.90393 h 39 v 21.38238 h 39 V 388.82102 601 v 0 h -39 v 0 h -39 v 0 h -39 v 0 h -40 v 0 h -39 v 0 h -39 v 0 h -39 v 0 h -39 v 0 h -39 v 0 h -39 v 0 h -39 v 0 h -40 v 0 h -39 v 0 h -39 v 0 h -39 v 0 h -39 v 0 h -39 v 0 h -39 v 0 h -39 v 0 h -40 v 0 H 78 v 0 H 39 v 0 H 0 Z"
     fill="#ec7082"
     id="path4"
     style="stroke-width:0.906862" />
  <path
     d="m 0,392.93302 h 39 v 45.23195 h 39 v -7.40159 h 39 v 5.75679 h 40 v 2.4672 h 39 v -38.65276 h 39 v 8.22399 h 39 v 8.22399 h 39 v 35.36316 h 39 v -32.07356 h 39 v 15.62558 h 39 v 15.62559 h 40 v 0 h 39 v -12.33599 h 39 v -18.91518 h 39 v 23.84957 h 39 v -13.15838 h 39 v -6.5792 h 39 V 411.8482 h 39 v 15.62558 h 40 v -13.15839 h 39 v -23.02717 h 39 v 44.40955 h 39 V 388.82102 601 v 0 h -39 v 0 h -39 v 0 h -39 v 0 h -40 v 0 h -39 v 0 h -39 v 0 h -39 v 0 h -39 v 0 h -39 v 0 h -39 v 0 h -39 v 0 h -40 v 0 h -39 v 0 h -39 v 0 h -39 v 0 h -39 v 0 h -39 v 0 h -39 v 0 h -39 v 0 h -40 v 0 H 78 v 0 H 39 v 0 H 0 Z"
     fill="#db5c6e"
     id="path6"
     style="stroke-width:0.906862" />
  <path
     d="m 0,437.34257 h 39 v 7.40159 h 39 v 11.51359 h 39 v 13.98079 h 40 v -12.33599 h 39 v -8.22399 h 39 v 37.83036 h 39 v -2.4672 h 39 v -9.04639 h 39 v -23.02718 h 39 v -4.11199 h 39 v 37.00796 h 40 v -2.4672 h 39 v -17.27038 h 39 v -1.6448 h 39 v -7.40159 h 39 v 27.96157 h 39 v -5.75679 h 39 v -45.23196 h 39 v 36.18557 h 40 v -4.112 h 39 v 4.112 h 39 v -27.96157 h 39 V 475.17293 601 v 0 h -39 v 0 h -39 v 0 h -39 v 0 h -40 v 0 h -39 v 0 h -39 v 0 h -39 v 0 h -39 v 0 h -39 v 0 h -39 v 0 h -39 v 0 h -40 v 0 h -39 v 0 h -39 v 0 h -39 v 0 h -39 v 0 h -39 v 0 h -39 v 0 h -39 v 0 h -40 v 0 H 78 v 0 H 39 v 0 H 0 Z"
     fill="#c9475b"
     id="path8"
     style="stroke-width:0.906862" />
  <path
     d="m 0,493.26571 h 39 v 0.8224 h 39 v 13.98079 h 39 v -13.98079 h 40 v -5.75679 h 39 v 16.44798 h 39 v 8.22399 h 39 v 0 h 39 v -4.11199 h 39 v 0.8224 h 39 v 4.11199 h 39 v 0 h 40 v -23.84957 h 39 v 4.93439 h 39 v -7.40159 h 39 v 34.54076 h 39 v -6.57919 h 39 v -29.60637 h 39 v 28.78397 h 39 v 0.8224 h 40 v -35.36316 h 39 v 28.78397 h 39 v -20.55998 h 39 V 483.39692 601 v 0 h -39 v 0 h -39 v 0 h -39 v 0 h -40 v 0 h -39 v 0 h -39 v 0 h -39 v 0 h -39 v 0 h -39 v 0 h -39 v 0 h -39 v 0 h -40 v 0 h -39 v 0 h -39 v 0 h -39 v 0 h -39 v 0 h -39 v 0 h -39 v 0 h -39 v 0 h -40 v 0 H 78 v 0 H 39 v 0 H 0 Z"
     fill="#b73149"
     id="path10"
     style="stroke-width:0.906862" />
  <path
     d="m 0,526.98408 h 39 v 8.22399 h 39 v -8.22399 h 39 v 15.62558 h 40 v -1.6448 h 39 v 4.112 h 39 v 4.11199 h 39 v -2.46719 h 39 v 6.57919 h 39 v 4.112 h 39 v -16.44799 h 39 v 11.51359 h 40 v 4.9344 h 39 v -21.38238 h 39 v 0.8224 h 39 v 17.27038 h 39 v -27.96157 h 39 v 15.62558 h 39 v -12.33599 h 39 v 13.15839 h 40 v -1.6448 h 39 v -16.44798 h 39 v 25.49437 h 39 V 548.36645 601 v 0 h -39 v 0 h -39 v 0 h -39 v 0 h -40 v 0 h -39 v 0 h -39 v 0 h -39 v 0 h -39 v 0 h -39 v 0 h -39 v 0 h -39 v 0 h -40 v 0 h -39 v 0 h -39 v 0 h -39 v 0 h -39 v 0 h -39 v 0 h -39 v 0 h -39 v 0 h -40 v 0 H 78 v 0 H 39 v 0 H 0 Z"
     fill="#a51537"
     id="path12"
     style="stroke-width:0.906862" />
</svg>
